# xmcd
#
# Track frame offsets:
#	150
#	23895
#	43409
#	63680
#	78815
#	103210
#	116040
#	138545
#	157477
#	176889
#	198522
#
# Disc length: 2892 seconds
#
# Revision: 1
# Processed by: cddbd v1.5.2PL0 Copyright (c) Steve Scherf et al.
# Submitted via: audiograbber 1.83.01
#
DISCID=ab0b4a0b
DTITLE=Twisted Pine - Twisted Pine
DYEAR=2017
DGENRE=Bluegrass
TTITLE0=Hold On Me
TTITLE1=Bound To Do It Right (The Jersey City Song)
TTITLE2=I Miss Talking
TTITLE3=Lose My Love
TTITLE4=Easton
TTITLE5=Lee Street Tune
TTITLE6=21 and Rising
TTITLE7=When I Called Your Name
TTITLE8=Bank Man Blues
TTITLE9=Hogwild
TTITLE10=Something Special
EXTD=
EXTT0=
EXTT1=
EXTT2=
EXTT3=
EXTT4=
EXTT5=
EXTT6=
EXTT7=
EXTT8=
EXTT9=
EXTT10=
PLAYORDER=
